<mxfile host="app.diagrams.net" agent="Mozilla/5.0 (X11; Linux x86_64; rv:133.0) Gecko/20100101 Firefox/133.0" version="25.0.3">
  <diagram name="Page-1" id="MwOFFvbyECwS1uDYfjHy">
    <mxGraphModel dx="1434" dy="714" grid="1" gridSize="10" guides="1" tooltips="1" connect="1" arrows="1" fold="1" page="1" pageScale="1" pageWidth="850" pageHeight="1100" math="0" shadow="0">
      <root>
        <mxCell id="0" />
        <mxCell id="1" parent="0" />
        <mxCell id="7mRUCiY0MwMNDr5UfDYE-4" value="add(index, value)" style="text;html=1;align=center;verticalAlign=middle;whiteSpace=wrap;rounded=0;" parent="1" vertex="1">
          <mxGeometry x="10" y="200" width="110" height="60" as="geometry" />
        </mxCell>
        <mxCell id="7mRUCiY0MwMNDr5UfDYE-5" value="" style="rounded=0;whiteSpace=wrap;html=1;" parent="1" vertex="1">
          <mxGeometry x="120" y="200" width="200" height="70" as="geometry" />
        </mxCell>
        <mxCell id="7mRUCiY0MwMNDr5UfDYE-6" value="Head" style="text;html=1;align=center;verticalAlign=middle;whiteSpace=wrap;rounded=0;" parent="1" vertex="1">
          <mxGeometry x="120" y="200" width="60" height="30" as="geometry" />
        </mxCell>
        <mxCell id="7mRUCiY0MwMNDr5UfDYE-7" value="Tail" style="text;html=1;align=center;verticalAlign=middle;whiteSpace=wrap;rounded=0;" parent="1" vertex="1">
          <mxGeometry x="190" y="200" width="60" height="30" as="geometry" />
        </mxCell>
        <mxCell id="7mRUCiY0MwMNDr5UfDYE-8" value="Size" style="text;html=1;align=center;verticalAlign=middle;whiteSpace=wrap;rounded=0;" parent="1" vertex="1">
          <mxGeometry x="260" y="200" width="60" height="30" as="geometry" />
        </mxCell>
        <mxCell id="7mRUCiY0MwMNDr5UfDYE-11" value="4 &lt;font color=&quot;#97d077&quot;&gt;--&amp;gt; 5&lt;/font&gt;" style="text;html=1;align=center;verticalAlign=middle;whiteSpace=wrap;rounded=0;" parent="1" vertex="1">
          <mxGeometry x="251" y="220" width="60" height="30" as="geometry" />
        </mxCell>
        <mxCell id="CXb759IyEidRGTxRjS0S-40" style="edgeStyle=orthogonalEdgeStyle;rounded=0;orthogonalLoop=1;jettySize=auto;html=1;" edge="1" parent="1" source="CXb759IyEidRGTxRjS0S-6" target="CXb759IyEidRGTxRjS0S-8">
          <mxGeometry relative="1" as="geometry" />
        </mxCell>
        <mxCell id="CXb759IyEidRGTxRjS0S-6" value="Node 0" style="shape=process;whiteSpace=wrap;html=1;backgroundOutline=1;size=0.2894736842105263;" vertex="1" parent="1">
          <mxGeometry x="80" y="360" width="120" height="60" as="geometry" />
        </mxCell>
        <mxCell id="CXb759IyEidRGTxRjS0S-19" style="edgeStyle=orthogonalEdgeStyle;rounded=0;orthogonalLoop=1;jettySize=auto;html=1;" edge="1" parent="1" source="CXb759IyEidRGTxRjS0S-8" target="CXb759IyEidRGTxRjS0S-9">
          <mxGeometry relative="1" as="geometry" />
        </mxCell>
        <mxCell id="CXb759IyEidRGTxRjS0S-41" style="edgeStyle=orthogonalEdgeStyle;rounded=0;orthogonalLoop=1;jettySize=auto;html=1;" edge="1" parent="1" source="CXb759IyEidRGTxRjS0S-8" target="CXb759IyEidRGTxRjS0S-6">
          <mxGeometry relative="1" as="geometry" />
        </mxCell>
        <mxCell id="CXb759IyEidRGTxRjS0S-8" value="Node 1" style="shape=process;whiteSpace=wrap;html=1;backgroundOutline=1;size=0.2894736842105263;" vertex="1" parent="1">
          <mxGeometry x="240" y="360" width="120" height="60" as="geometry" />
        </mxCell>
        <mxCell id="CXb759IyEidRGTxRjS0S-20" style="edgeStyle=orthogonalEdgeStyle;rounded=0;orthogonalLoop=1;jettySize=auto;html=1;" edge="1" parent="1" source="CXb759IyEidRGTxRjS0S-9" target="CXb759IyEidRGTxRjS0S-8">
          <mxGeometry relative="1" as="geometry" />
        </mxCell>
        <mxCell id="CXb759IyEidRGTxRjS0S-43" style="edgeStyle=orthogonalEdgeStyle;rounded=0;orthogonalLoop=1;jettySize=auto;html=1;entryX=0;entryY=0.5;entryDx=0;entryDy=0;strokeColor=#FF6666;" edge="1" parent="1" source="CXb759IyEidRGTxRjS0S-9" target="CXb759IyEidRGTxRjS0S-10">
          <mxGeometry relative="1" as="geometry" />
        </mxCell>
        <mxCell id="CXb759IyEidRGTxRjS0S-47" style="edgeStyle=orthogonalEdgeStyle;rounded=0;orthogonalLoop=1;jettySize=auto;html=1;entryX=0;entryY=0.5;entryDx=0;entryDy=0;exitX=0.9;exitY=1.017;exitDx=0;exitDy=0;exitPerimeter=0;fillColor=#d5e8d4;strokeColor=#82b366;" edge="1" parent="1" source="CXb759IyEidRGTxRjS0S-9" target="CXb759IyEidRGTxRjS0S-45">
          <mxGeometry relative="1" as="geometry">
            <mxPoint x="490" y="430" as="sourcePoint" />
          </mxGeometry>
        </mxCell>
        <mxCell id="CXb759IyEidRGTxRjS0S-9" value="Node 2" style="shape=process;whiteSpace=wrap;html=1;backgroundOutline=1;size=0.2894736842105263;" vertex="1" parent="1">
          <mxGeometry x="400" y="360" width="120" height="60" as="geometry" />
        </mxCell>
        <mxCell id="CXb759IyEidRGTxRjS0S-44" style="edgeStyle=orthogonalEdgeStyle;rounded=0;orthogonalLoop=1;jettySize=auto;html=1;entryX=1;entryY=0.5;entryDx=0;entryDy=0;fillColor=#f8cecc;strokeColor=#FF6666;" edge="1" parent="1" source="CXb759IyEidRGTxRjS0S-10" target="CXb759IyEidRGTxRjS0S-9">
          <mxGeometry relative="1" as="geometry" />
        </mxCell>
        <mxCell id="CXb759IyEidRGTxRjS0S-10" value="Node 3" style="shape=process;whiteSpace=wrap;html=1;backgroundOutline=1;size=0.2894736842105263;" vertex="1" parent="1">
          <mxGeometry x="560" y="360" width="120" height="60" as="geometry" />
        </mxCell>
        <mxCell id="CXb759IyEidRGTxRjS0S-23" style="edgeStyle=orthogonalEdgeStyle;rounded=0;orthogonalLoop=1;jettySize=auto;html=1;entryX=0.5;entryY=0;entryDx=0;entryDy=0;" edge="1" parent="1" source="CXb759IyEidRGTxRjS0S-12" target="CXb759IyEidRGTxRjS0S-6">
          <mxGeometry relative="1" as="geometry" />
        </mxCell>
        <mxCell id="CXb759IyEidRGTxRjS0S-12" value="" style="whiteSpace=wrap;html=1;aspect=fixed;" vertex="1" parent="1">
          <mxGeometry x="130" y="225" width="40" height="40" as="geometry" />
        </mxCell>
        <mxCell id="CXb759IyEidRGTxRjS0S-26" style="edgeStyle=orthogonalEdgeStyle;rounded=0;orthogonalLoop=1;jettySize=auto;html=1;entryX=0.5;entryY=0;entryDx=0;entryDy=0;" edge="1" parent="1" source="CXb759IyEidRGTxRjS0S-14" target="CXb759IyEidRGTxRjS0S-10">
          <mxGeometry relative="1" as="geometry">
            <mxPoint x="220" y="340" as="targetPoint" />
          </mxGeometry>
        </mxCell>
        <mxCell id="CXb759IyEidRGTxRjS0S-14" value="" style="whiteSpace=wrap;html=1;aspect=fixed;" vertex="1" parent="1">
          <mxGeometry x="200" y="225" width="40" height="40" as="geometry" />
        </mxCell>
        <mxCell id="CXb759IyEidRGTxRjS0S-29" value="" style="endArrow=none;html=1;rounded=0;entryX=0.25;entryY=0;entryDx=0;entryDy=0;" edge="1" parent="1" target="CXb759IyEidRGTxRjS0S-6">
          <mxGeometry width="50" height="50" relative="1" as="geometry">
            <mxPoint x="80" y="420" as="sourcePoint" />
            <mxPoint x="130" y="370" as="targetPoint" />
          </mxGeometry>
        </mxCell>
        <mxCell id="CXb759IyEidRGTxRjS0S-35" value="" style="endArrow=none;html=1;rounded=0;entryX=1;entryY=0;entryDx=0;entryDy=0;" edge="1" parent="1">
          <mxGeometry width="50" height="50" relative="1" as="geometry">
            <mxPoint x="650" y="420" as="sourcePoint" />
            <mxPoint x="680" y="360" as="targetPoint" />
          </mxGeometry>
        </mxCell>
        <mxCell id="CXb759IyEidRGTxRjS0S-45" value="Node 4 (New)" style="shape=process;whiteSpace=wrap;html=1;backgroundOutline=1;size=0.2894736842105263;fillColor=#d5e8d4;strokeColor=#82b366;" vertex="1" parent="1">
          <mxGeometry x="480" y="460" width="120" height="60" as="geometry" />
        </mxCell>
        <mxCell id="CXb759IyEidRGTxRjS0S-48" style="edgeStyle=orthogonalEdgeStyle;rounded=0;orthogonalLoop=1;jettySize=auto;html=1;entryX=0.133;entryY=0.95;entryDx=0;entryDy=0;entryPerimeter=0;fillColor=#d5e8d4;strokeColor=#82b366;exitX=0.85;exitY=0;exitDx=0;exitDy=0;exitPerimeter=0;" edge="1" parent="1" source="CXb759IyEidRGTxRjS0S-45" target="CXb759IyEidRGTxRjS0S-10">
          <mxGeometry relative="1" as="geometry" />
        </mxCell>
      </root>
    </mxGraphModel>
  </diagram>
</mxfile>
